<svg xmlns="http://www.w3.org/2000/svg" xmlns:xlink="http://www.w3.org/1999/xlink" id="art" x="0" y="0" version="1.1" viewBox="0 0 514.7 75.6" xml:space="preserve"><style>.st3{fill:#fff}</style><g><g><g id="Hor_x5F_Trap_x5F_4C_1_"><g id="Hor_x5F_Trap_x5F_4C_2_"><circle cx="37.7" cy="37.8" r="37.7" class="st3" transform="rotate(-67.5 37.704 37.774)"/><path fill="#0072d3" d="M66.1 15.6c1.5 1.6 3.4 4.5 4.6 7.6 0 0 .7 1.7-1.2 1.7h-7.1c-1.8 0-1.9-1.4-1.9-1.4-1-3-2-5-4-7.8 0 0-1-1.3 1.1-1.3h5c0 .1 2.3-.1 3.5 1.2zM20.4 59.7s.8 1.4 2.2 1.4h6.2c1.4 0 .7-1.4.7-1.4-1-2.5-1.8-5.1-2.4-7.7 0 0-.3-1.4-1.7-1.4h-8.1c-1.5-.1-.9 1.5-.9 1.5 1 2.7 2.4 5.2 4 7.6zm8.4-45.2h-6.2c-1.4 0-2.2 1.4-2.2 1.4-.2.3-.4.7-.6 1 .2.2.3.3.4.6l.3.5h.5c.9.1 1.9-1.9 1.9-1.9s2 2.5 1.2 4.3c-.7 1.6-1.9 1.8-2.6 1.9-.1 0-.3 0-.3.1-.2.2-.5.3-.7.5 0 .6-.2 1.4-.7 2.1h5.7c1.4 0 1.7-1.4 1.7-1.4.6-2.6 1.4-5.2 2.4-7.7-.1-.1.6-1.4-.8-1.4zM16.6 49.1h8.5c1.4 0 1.1-1.3 1.1-1.3-.1-.3-.1-.6-.1-1-1.1-.2-2-.6-2.9-.9-.9-.4-1.9-.7-3.3-1-2.9-.6-4.1-1-4.5-1.9h-.6c-.2 0-.4-.1-.6-.1.2 1.7.5 3.3.9 4.9-.1 0 .1 1.3 1.5 1.3zm16.4 12h9.3c.9 0 1.8-.7 2.2-1.6l2.1-7c-1.3.8-3.1 1.9-5.4 2.3-.6.1-1.2.2-1.8.2-2.8 0-4.1-1.6-4.6-2.1 0 0-.9-1.1-1.7-2.3h-3.3c-.9 0-1.4.7-1.2 1.6l2.2 7.3c.4.9 1.4 1.6 2.2 1.6zm25.8-34.7h-8.5c-1.4 0-1.1 1.3-1.1 1.3.4 2.4.6 4.8.7 7.2.8-.4 1.7-.6 2.5-.6.1 0 1.2.2 1.8-.4.2-.4.5-.7.9-.9l.1-.2c.2-.7 1-1.7 2.3-1.9h.5c1.1 0 1.8.6 2.4 1 0 0 .4.3.9.7-.2-1.7-.5-3.3-.9-4.9 0 .1-.2-1.2-1.6-1.3zm1.6 21.4c.4-1.6.7-3.3.9-5-.4-1.3-1-2.8-2.1-3.7l-.4-.3c-.1 0-1.9-.4-3.5.2-1.3.5-1.9.9-5.6 3.7 0 .6-.1 1.1-.2 1.7 1 .1 2.6.5 4.1 1.7.7.6 2.3 1.9 6 2.7.7-.3.8-1 .8-1zM46.6 61.1h6.2c1.4 0 2.2-1.4 2.2-1.4 1.5-2.2 2.7-4.5 3.7-7-2.4-.3-4.9-.9-6.8-1.7l-.2.1c-.2 0-1.8.5-3.2.5l-.2.4c-.6 2.6-1.4 5.2-2.4 7.7 0 0-.7 1.4.7 1.4zm20-10zM25.2 26.4h-7c-.1.1-.2.1-.3.2-.9.5-1.8.7-2.7.8-.1.2-.1.4-.1.4-.4 1.4-.6 2.9-.8 4.4v.2s.1.8.8 1.6c.1.2.3.3.4.5.2-.3.5-.6.8-.9-.2-.3-.4-.6-.5-.9-.1-.5 0-1.1.3-1.6l1.1-1.6c.4-.6 1.2-1 1.9-1 .4 0 .8.1 1.2.3l.3-.3c.6-.5 1.4-.8 2.4-.8.8 0 1.8.2 2.6.5.1.1.3.1.4.2 0-.2.1-.5.1-.7.1 0 .5-1.3-.9-1.3zm37.7 0c-1.2 0-.9 1.3-.9 1.3.5 2 .8 4.1 1 6.3.8.6 1.5 1.2 1.9 1.4.4.3 1 .9 1.6 1.5h5.9c1.7 0 1.5-1.7 1.5-1.7-.1-2.7-.6-4.7-1.2-7.3 0 0-.4-1.6-2.2-1.6h-7.6zM40.9 47c.2.2.3.8.4 1.2.6-.4 1.4-.7 2.3-.7.1 0 1.3.1 1.6.1 1.6.1 1.9-.8 1.9-.8.1-.5.5-1 .9-1.5V44c-2.9 2-5.6 2.7-7.1 3zm17.2-22c1.5.1.9-1.5.9-1.5-1-2.7-2.4-5.3-4-7.7 0 0-.8-1.4-2.2-1.4h-6.2c-1.4 0-.7 1.4-.7 1.4 1 2.5 1.8 5.1 2.4 7.7 0 0 .3 1.4 1.7 1.4h8.1zM29.6 49.1h2.5c-.3-.4-.5-.7-.6-.9l-.7-1c-1 0-2.1-.1-3.1-.2v.4c.2 1 1 1.7 1.9 1.7zm12.8-34.6H33c-.9 0-1.8.7-2.2 1.6l-2.2 7.3c-.2.8.4 1.6 1.2 1.6h15.7c.9 0 1.4-.7 1.2-1.6L44.5 16c-.3-.8-1.2-1.5-2.1-1.5zm5.3 13.6c-.1-.9-.9-1.7-1.8-1.7H29.6c-.9 0-1.7.7-1.8 1.7l-.2 1.6c.4.6.8 1.2 1 2 .4-.2.9-.3 1.5-.3.5 0 1.1.1 1.7.3.7.3 11 4.7 12.5 5.3h2.6c.3 0 .5-.1.7-.2l.1-.1c.2-.2.3-.4.5-.6.1-.2.2-.5.1-.8l-.6-7.2zM13.3 13.2h5.5s1.6.1 3.1-1.5c3.1-3.8 7-7.1 12.1-9.4 2-.9-.9-.5-2.8-.2-7.5 1.4-13.9 5-18.8 9.7-1.2 1.5.9 1.4.9 1.4zm28.5 49.1h-8.1c-.9 0-1.3.7-.9 1.5 0 0 1.7 4.4 3.5 7.4.6 1.1.8 1.2 1.4 1.2s.8-.1 1.4-1.2c1.8-3 3.5-7.4 3.5-7.4.4-.8 0-1.5-.8-1.5zm-10.6 1.5s-.5-1.5-2-1.5h-5.3c-1.8 0-.3 1.5-.3 1.5 3 3.4 6.7 6.8 10.8 8.7 1.6.7 1.7.7 1.1-.3-.8-1.4-3.3-6.3-4.3-8.4zm20.6 0s1.6-1.5-.3-1.5h-5.3c-1.4 0-2 1.5-2 1.5-1 2.2-3.5 7-4.4 8.4-.6 1-.4 1 1.1.3 4.1-1.9 7.9-5.2 10.9-8.7zM34 73.2c-5.1-2.3-8.9-5.6-12.1-9.4-1.5-1.6-3.1-1.5-3.1-1.5h-5.5s-2.1 0-.8 1.4c4.8 4.7 11.3 8.3 18.8 9.7 1.9.3 4.7.7 2.7-.2zm28.1-10.9h-5.5s-1.6-.1-3.1 1.5c-3.1 3.8-7 7.1-12.1 9.4-2 .9.9.5 2.8.2 7.5-1.4 13.9-5 18.8-9.7 1.2-1.4-.9-1.4-.9-1.4zm10.2-23.7h-4.5c1.4 1.8 2.8 3.8 3.4 5.1l.2.5c.2.5 0 1-.5 1.2l-.6.2s-.7.2-1.6 1.1c-.7.6-1.5 1-2.3 1-.8 0-1.5-.3-1.8-.5 0 0-.9-.1-1.4-.1h-1.1c-.1.3-.1.6-.2.9 0 0-.3 1.3.9 1.3h7.5c1.8 0 2.2-1.6 2.2-1.6.7-2.5 1.1-4.6 1.2-7.3.1-.1.3-1.8-1.4-1.8zm-2.8 12h-1.3c.2.3.3.6.3 1 0 1.7-2 1.7-3.4 1.7-1.3 0-3.1-.1-5-.3-.9 2.5-1.9 4.4-3.6 6.9 0 0-1 1.3 1.1 1.3h5s2.3.1 3.5-1.2c1.5-1.6 3.4-4.5 4.6-7.6 0-.1.7-1.8-1.2-1.8zM5.9 25h2.5v-.2c.1-.5.2-1.1.6-1.8l-.2-.5c-.3-.8-.4-2.5 1-4 .8-.9 1.8-1.3 3-1.3.9 0 1.9.6 2.9.5.3 0 .4-.1.4-.1.8-.9 1.6-1.3 2.3-1.3h.1c.1-.2.2-.3.3-.5 0 0 1-1.3-1.1-1.3h-5s-2.3-.1-3.5 1.2c-1.5 1.6-3.4 4.5-4.6 7.6.1-.1-.6 1.7 1.3 1.7zm17.7-13.3s-1.6 1.5.3 1.5h5.3c1.4 0 2-1.5 2-1.5 1-2.2 3.5-7 4.4-8.4.6-1 .4-1-1.1-.3-4.1 1.9-7.8 5.3-10.9 8.7zm10.1 1.5h8.1c.9 0 1.3-.7.9-1.5 0 0-1.7-4.4-3.5-7.4-.7-1.1-.9-1.3-1.5-1.3s-.8.1-1.4 1.2c-1.8 3-3.5 7.4-3.5 7.4-.4.9 0 1.6.9 1.6zm10.5-1.4s.5 1.5 2 1.5h5.3c1.8 0 .3-1.5.3-1.5-3-3.5-6.8-6.9-10.9-8.8-1.6-.7-1.7-.7-1.1.3.9 1.5 3.4 6.3 4.4 8.5zM12.8 61.1h5c2.1 0 1.1-1.3 1.1-1.3-1.9-2.7-2.9-4.8-4-7.8 0 0-.2-1.4-1.9-1.4H5.9c-1.9 0-1.2 1.7-1.2 1.7 1.2 3.1 3.1 6 4.6 7.6 1.2 1.3 3.5 1.2 3.5 1.2zM41.4 2.4c5.1 2.3 8.9 5.6 12.1 9.4 1.5 1.6 3.1 1.5 3.1 1.5h5.5s2.1 0 .8-1.4c-4.8-4.7-11.3-8.3-18.8-9.7-1.9-.4-4.7-.8-2.7.2zM12.6 49.1c1.2 0 .9-1.3.9-1.3-.5-1.9-.8-3.8-1-5.8-1-.8-1.8-2-2-3.4H3.1c-1.7 0-1.5 1.7-1.5 1.7.1 2.7.6 4.7 1.2 7.2 0 0 .4 1.6 2.2 1.6h7.6zM3.1 37h7.2c-.1-.8-.2-1.3-.9-2.7-1-1.9-1-2.9-1.6-3.8l-.4-.7c-.1-.1-.7-1.4-.1-3 .1-.1.1-.2.2-.3H5.1c-1.8 0-2.2 1.6-2.2 1.6-.7 2.5-1.1 4.6-1.2 7.3-.1-.1-.3 1.6 1.4 1.6z"/><path fill="#f23d4e" d="M8.7 29.1s-.4-.8 0-1.8.9-1.1 1.1-2.3.6-2.8 3-3.3 4 3 6.1.7c0 0 .4 1.8-1.7 3-2.1 1.1-3.7.4-4.3.2s-1.8-1.2-2.1 0c-.3 1.2 2 .8 1.5 2.9-.1 0-2-1.3-3.6.6zm7.4-8s.8-.5 1.4-1.8c.6-1.3 1.4-1.3 1.4-1.3-.4-.7-1.1-.3-1.8.5s-2.3.5-2.9.3c-.6-.2-2.3-.7-3.4.6s-.7 2.6-.7 2.6c2.8-2.5 6-.9 6-.9zm4.1.2c.9-.7 1.8.1 2.5-1.4.4-1 0-1.7 0-1.7-.9 1.4-1.5 1.2-2.8 1.1-1.4-.2-1.4.4-2.1 1.3-.6.9-1.1 1.1-1.1 1.1.7.6 2.7.3 3.5-.4zm-9.8 7.8c-.9.3-1.3 1.3-1 2.2s1.3 1.5 2.1 1.2c.9-.3 1.3-1.3 1-2.2-.3-.9-1.2-1.4-2.1-1.2zm1.5 9.1c.2 1.9 1.7 3.2 3 3.4 1.3.1 2-.5 2-2.1s-1.8-3.4-2.8-4.6c-1-1.2-1.2-2.3-1.2-2.3-.9 1.4-2.4.7-2.4.7 1 1.1 1.2 3 1.4 4.9zm6.2-3.8c-.9 0-1.6.7-1.6 1.6s.7 1.6 1.6 1.6 1.6-.7 1.6-1.6-.7-1.6-1.6-1.6zm4.2.6l1-1.7c.3-.4.1-1-.3-1.3l-3.2-2c-.4-.3-1-.1-1.3.3l-1.1 1.6c-.2.3-.1.7.2.9l3.8 2.4c.2.3.7.2.9-.2zm-2.1 2.6c-.2.3-.9.4-.9.4 2.4.8 1.1-.1 3.4-.2s3.7-.7 4.5-3.2c.9-2.5-.7-4.6-2-5.1s-2.9-.6-3.5 0 .1.9.1.9 1.3.8 2.1 1.4c.8.6.4 1.4.4 1.4s-.9 1.7-1.5 2.4c-.5.8-1.8.6-1.8.6s-.6 1.1-.8 1.4zm0 5.9c3.4.7 4.4 1.9 7.6 2.2 3.2.3 7.8.3 7.8.3-.2-2.3-.2-3.7-.2-3.7-3.4-.6-4.7-.7-5.8-2.1-1.1-1.3.2-3.3.2-3.3-.9-.9-2-.8-2-.8-1.2 2.3-4 2.9-4.7 2.7s-1 0-1.4.3c-.5.3-1 .3-2.3-.2-1.3-.5-1.4.3-1.4.3-.2 2.8-.9 2.6-1.2 2.9-.5.4.1.7 3.4 1.4zm19.3-5.2c2.2 1.7 4.6.9 4.6.9.4-.7-.3-1-.3-1S32 33.3 31.3 33c-.7-.3-1.8-.4-2.6.3s-.6 1.8-.6 1.8c2 .4 2.4 1.4 2.4 1.4 4-.3 8.1 1.1 9 1.8zm-3.4 3.3c-.1.5.3 5.3.3 5.3.9.7 2 .3 2 .3.6-1.4 1.3-6.7 1-7.6-.3-1-.9-1.2-3.5-1.8-2.6-.6-4.5-.7-5-.6s-1.1.8-.9 1.8c.2 1 1.7 1.5 1.7 1.5 1.6.6 4.4 1.1 4.4 1.1zm1.5 8.9c.9-.1 1.3-.9.9-1.8-.4-.8-1.4-1-2-.8s-.7 1-.7 1c-.4 1.4.9 1.7 1.8 1.6zm2.7-10.7s.1 2.8-.7 5.9c0 0 4.3-.2 8.6-3.6s5-3.9 6.7-4.5c1.6-.6 2.6-.5 3.4-.4.8 0 1.4.4 1.7-.2.3-.6-1.7-2.2-2.8-2.6-1.2-.4-1.5-.2-1.7.3-.2.5-1.6 1-2.8 1s-2.8.5-3.8 1.8c-1.1 1.2-4.6 3.4-8.6 2.3zm20.7-3c.2.8-.9 1.2-.9 1.2 2.8 2.5 3.1 7.5 3.1 7.5s1.5 0 1.9.2c.4.2 1.6.9 2.7-.2 1.2-1.1 2.1-1.4 2.1-1.4-.8-2-4.4-6.5-5.9-7.6-1.5-1.1-3.5-2.8-4.2-3.3-.7-.5-1.2-1.1-2.1-.9-.9.2-1.2.9-1.2.9 2.2.9 4.3 2.9 4.5 3.6zm-25.2 15c.4.4 1.6 2.3 5.2 1.6s6-3.3 7.3-3.2 3.1-.4 3.1-.4c-.8-1.8-3.7-2-3.7-2-.7 1-1.9 1.1-4 1S41 49.9 41 49.9s-.6 0-.9-1.1c-.3-1.1-.9-1.5-.9-1.5s-.7.4-.2 1.2c.5.7.3 1.5.1 1.8-.3.8-1.8 1.4-3.2.6-1.7-1-.5-3.5-.5-3.5h-2.9s2.9 4 3.3 4.4zm16.5-2.1c5 2.1 14.9 2.5 14.9 1.9 0-.5-.6-.5-.6-.5-9-.3-12.2-2.6-13.8-3.9-1.6-1.2-3.5-1.6-3.5-1.6-.9.1-1.2 1.2-1.2 1.2 2.9.2 4.2 2.9 4.2 2.9z"/><path d="M139.1 14.5l16 46.6h-44.4l9-27.8h11.6L125.8 50h13.7l-12-35.5h11.6zm76.1.3c-.6 0-1.1.2-1.5.6-.4.4-.6.9-.6 1.5s.2 1.1.6 1.5c.4.4.9.6 1.5.6s1.1-.2 1.5-.6c.4-.4.6-.9.6-1.5s-.2-1.1-.6-1.5c-.4-.4-.9-.6-1.5-.6zm2.5 2.1c0 .7-.2 1.3-.7 1.8-.5.5-1.1.7-1.8.7s-1.3-.2-1.8-.7c-.5-.5-.7-1.1-.7-1.8s.2-1.3.7-1.8c.5-.5 1.1-.7 1.7-.7.7 0 1.3.2 1.8.7.5.6.8 1.2.8 1.8zm-1.9-.5c0-.2-.1-.3-.2-.4-.1-.1-.3-.1-.6-.1h-.4v1h.4c.2 0 .4 0 .5-.1.3 0 .3-.2.3-.4zm-1.6-.8h1c.3 0 .6 0 .7.1.3.1.4.3.4.7 0 .2-.1.4-.3.5-.1.1-.2.1-.4.1.2 0 .4.1.5.3.1.1.1.3.1.4v.5h-.4V17.9c0-.3-.1-.5-.3-.6-.1-.1-.3-.1-.5-.1h-.4v1.1h-.5v-2.7zm-35.3-1.1h-20.7v11.1h14.5c6.9 0 12.4 5.3 12.4 12.2 0 6.9-5.7 12.1-12.6 12.1h-3.2V33.2h-11.1V61h20.7c10.6-1 18.3-11.9 18.3-23.3 0-11.3-8.5-22.3-18.3-23.2zm-62 14.7c0-8.1-6.7-14.4-14.8-14.7H84.8v11.1h15.8c2 .1 3.6 1.6 3.6 3.6 0 2.1-1.6 4-3.7 4.1H84.8v27.8h11.1v-17h6.2c8.1-.5 14.8-6.9 14.8-14.9zM211 61.1V14.5h-11.1v46.6H211z" class="st3"/></g></g></g><g><path d="M276.1 19.7c-1.2-1.3-2.8-2-4.6-2-1.6 0-2.5.6-2.5 1.6 0 .9.6 1.4 3 2 5.3 1.3 6.9 3.1 6.9 6 0 3.4-2.4 5.7-7.4 5.7-3.2 0-5.4-1-7.3-3.1l2.8-2.8c1.3 1.5 2.8 2.3 4.6 2.3 1.9 0 2.8-.7 2.8-1.8s-.9-1.7-4.4-2.5c-3.6-.9-5.5-2.3-5.5-5.5 0-3.3 2.7-5.5 7-5.5 3.4 0 5.5 1.1 7.3 2.8l-2.7 2.8zM282.2 32.6V14.4h13.3v3.5h-8.8v3.6h6.6V25h-6.6v4.2h9.3v3.5h-13.8zM299.4 32.6V14.4h13.3v3.5h-8.8v3.6h6.6V25h-6.6v4.2h9.3v3.5h-13.8zM327.8 32.6l-4.4-7.6-2.4 2.8v4.8h-4.5V14.4h4.5v7.8l6.3-7.8h5.5l-6.3 7.3 6.5 11h-5.2zM356.2 32.6l-1.1-3.5h-6.5l-1.1 3.5h-4.8l6.7-18.3h4.9l6.7 18.3h-4.8zm-4.3-13.8l-2.2 7h4.4l-2.2-7zM363.6 32.6V14.4h6.8c6.4 0 9.2 3.4 9.2 9.1 0 5.7-2.8 9.2-9.2 9.2h-6.8zm6.9-3.5c2.9 0 4.5-2 4.5-5.6s-1.6-5.5-4.5-5.5h-2.4v11.1h2.4zM387.2 32.6l-6.4-18.3h4.8l4.1 13.6 4.1-13.6h4.8L392 32.6h-4.8zM401.1 32.6V14.4h13.3v3.5h-8.8v3.6h6.6V25h-6.6v4.2h9.3v3.5h-13.8zM429.8 32.6L422.6 21v11.6h-4.4V14.4h4.6L430 26V14.4h4.4v18.3h-4.6zM442.3 32.6V18h-5.2v-3.6h14.8V18h-5.2v14.7h-4.4zM465.5 14.4h4.5v10.3c0 5.2-2.2 8.4-7.7 8.4s-7.7-3.2-7.7-8.3V14.4h4.5v10.9c0 2.3.7 4 3.3 4 2.5 0 3.2-1.7 3.2-4V14.4zM484.7 32.6l-3.9-6.8h-2.1v6.8h-4.5V14.4h8.4c4.4 0 6.8 2.1 6.8 5.8 0 2.8-1.4 4.6-4 5.2l4.3 7.3h-5zm-2.8-10c2.1 0 3-.9 3-2.4s-.9-2.4-3-2.4h-3.2v4.8h3.2zM493.1 32.6V14.4h13.3v3.5h-8.8v3.6h6.6V25h-6.6v4.2h9.3v3.5h-13.8zM510.2 30.8c0-1.2 1-2.2 2.2-2.2 1.2 0 2.2 1 2.2 2.2 0 1.2-1 2.2-2.2 2.2-1.2 0-2.2-1-2.2-2.2z" class="st3"/></g><g><path d="M276 48.1c-1.2-1.3-2.8-2-4.6-2-1.6 0-2.5.6-2.5 1.6 0 .9.6 1.4 3 2 5.3 1.3 6.9 3.1 6.9 6 0 3.4-2.4 5.7-7.4 5.7-3.2 0-5.4-1-7.3-3.1l2.8-2.8c1.3 1.5 2.8 2.3 4.6 2.3 1.9 0 2.8-.7 2.8-1.8s-.9-1.7-4.4-2.5c-3.6-.9-5.5-2.3-5.5-5.5 0-3.3 2.7-5.5 7-5.5 3.4 0 5.5 1.1 7.3 2.8l-2.7 2.8zM293.7 61.1l-1.1-3.5h-6.5l-1.1 3.5h-4.8l6.7-18.3h4.9l6.7 18.3h-4.8zm-4.3-13.9l-2.2 7h4.4l-2.2-7zM304.7 61.1l-6.4-18.3h4.8l4.1 13.6 4.1-13.6h4.8l-6.4 18.3h-5zM318.6 61.1V42.8h13.3v3.5h-8.8v3.6h6.6v3.5h-6.6v4.2h9.3v3.5h-13.8zM348.5 61.1V46.4h-5.2v-3.6h14.8v3.6H353v14.7h-4.5zM371.8 61.1v-7.5h-6.5v7.5h-4.5V42.8h4.5v7h6.5v-7h4.5v18.3h-4.5zM380.6 61.1V42.8h13.3v3.5h-8.8v3.6h6.6v3.5h-6.6v4.2h9.3v3.5h-13.8zM404.8 52c0-5.5 3.2-9.5 8.8-9.5 5.6 0 8.8 4 8.8 9.5s-3.2 9.5-8.8 9.5c-5.6-.1-8.8-4.1-8.8-9.5zm13 0c0-3.7-1.7-5.8-4.2-5.8-2.6 0-4.2 2.2-4.2 5.8s1.6 5.8 4.2 5.8c2.5-.1 4.2-2.2 4.2-5.8zM440.7 57.9c-1.4 2.2-3.8 3.6-7.1 3.6-5.9 0-8.7-4.3-8.7-9.5 0-5.5 3.2-9.5 8.7-9.5 3.9 0 6.3 1.9 7.6 4.8l-4.2 1.5c-.6-1.5-1.9-2.5-3.5-2.5-2.6 0-4.2 2.1-4.2 5.8 0 3.5 1.4 5.7 4.2 5.7 1.5 0 2.7-.8 3.4-2.1l3.8 2.2zM444.2 61.1V42.8h13.3v3.5h-8.8v3.6h6.6v3.5h-6.6v4.2h9.3v3.5h-13.8zM473.6 61.1l-1.1-3.5H466l-1.1 3.5h-4.8l6.7-18.3h4.9l6.7 18.3h-4.8zm-4.3-13.9l-2.2 7h4.4l-2.2-7zM492.7 61.1l-7.2-11.6v11.6H481V42.8h4.6l7.2 11.6V42.8h4.4v18.3h-4.5zM501.1 59.2c0-1.2 1-2.2 2.2-2.2 1.2 0 2.2 1 2.2 2.2 0 1.2-1 2.2-2.2 2.2-1.2 0-2.2-1-2.2-2.2z" class="st3"/></g><g><path d="M507.9 44c-.3-.3-.7-.5-1.1-.5-.4 0-.6.2-.6.4s.1.3.7.5c1.3.3 1.7.8 1.7 1.5 0 .8-.6 1.4-1.8 1.4-.8 0-1.3-.2-1.8-.8l.7-.7c.3.4.7.6 1.1.6.5 0 .7-.2.7-.5s-.2-.4-1.1-.6c-.9-.2-1.4-.6-1.4-1.4 0-.8.7-1.4 1.7-1.4.8 0 1.4.3 1.8.7l-.6.8zM513.1 47.2v-2.9l-1 2.9h-.7l-1-2.9v2.9h-1.1v-4.5h1.4l1 3 1.1-3h1.4v4.5h-1.1z" class="st3"/></g><path d="M238.1 0h1.2v75.6h-1.2z" class="st3"/></g></svg>